<mxfile host="app.diagrams.net" modified="2020-11-24T08:47:04.702Z" agent="5.0 (Windows NT 6.2; Win64; x64) AppleWebKit/537.36 (KHTML, like Gecko) Chrome/77.0.3865.120 Safari/537.36" etag="T-7bXEIDhbRydOK8HxZ2" version="13.10.1" type="github">
  <diagram id="i-t6SUX_k5mnQpyT5lP1" name="Page-1">
    <mxGraphModel dx="2828" dy="1410" grid="1" gridSize="10" guides="1" tooltips="1" connect="1" arrows="1" fold="1" page="1" pageScale="1" pageWidth="827" pageHeight="1169" math="0" shadow="0">
      <root>
        <mxCell id="0" />
        <mxCell id="1" parent="0" />
        <mxCell id="q7pfzRahwFJ0-le26uqx-1" value="前研開發" style="text;html=1;strokeColor=#666666;fillColor=#f5f5f5;align=center;verticalAlign=middle;whiteSpace=wrap;rounded=0;strokeWidth=3;fontColor=#333333;" parent="1" vertex="1">
          <mxGeometry x="680" y="49.999999999999986" width="100" height="30" as="geometry" />
        </mxCell>
        <mxCell id="q7pfzRahwFJ0-le26uqx-2" value="&lt;span lang=&quot;EN-US&quot; style=&quot;font-size: 16px&quot;&gt;&lt;span class=&quot;926482506-07022020&quot; style=&quot;font-size: 16px&quot;&gt;稽核缺失系統&amp;nbsp;&lt;/span&gt;&lt;/span&gt;Ver 1.0&lt;br style=&quot;font-size: 16px&quot;&gt;2020-11-23" style="text;html=1;align=left;verticalAlign=middle;resizable=0;points=[];autosize=1;fontSize=16;" parent="1" vertex="1">
          <mxGeometry x="40" y="40" width="170" height="40" as="geometry" />
        </mxCell>
        <mxCell id="q7pfzRahwFJ0-le26uqx-3" value="操作人員" style="rounded=0;whiteSpace=wrap;html=1;align=center;labelBorderColor=none;fillColor=#e1d5e7;strokeColor=#9673a6;strokeWidth=3;" parent="1" vertex="1">
          <mxGeometry x="247.88" y="49.999999999999986" width="93" height="30" as="geometry" />
        </mxCell>
        <mxCell id="q7pfzRahwFJ0-le26uqx-4" value="上傳、回傳資料" style="text;html=1;align=center;verticalAlign=middle;resizable=0;points=[];autosize=1;fontColor=#000000;" parent="1" vertex="1">
          <mxGeometry x="400" y="300" width="100" height="20" as="geometry" />
        </mxCell>
        <mxCell id="q7pfzRahwFJ0-le26uqx-5" value="發現單位&lt;br&gt;的人員" style="text;html=1;strokeColor=#d6b656;fillColor=#fff2cc;align=center;verticalAlign=middle;whiteSpace=wrap;rounded=0;strokeWidth=3;" parent="1" vertex="1">
          <mxGeometry x="66.75" y="332.5" width="80" height="65" as="geometry" />
        </mxCell>
        <mxCell id="q7pfzRahwFJ0-le26uqx-8" value="&lt;font color=&quot;#0000ff&quot;&gt;由平板端進入&lt;br&gt;製程稽核缺失系統&lt;/font&gt;" style="rounded=1;whiteSpace=wrap;html=1;strokeColor=#9673a6;strokeWidth=1;align=center;fillColor=#e1d5e7;" parent="1" vertex="1">
          <mxGeometry x="230" y="110" width="130" height="44.26" as="geometry" />
        </mxCell>
        <mxCell id="q7pfzRahwFJ0-le26uqx-10" value="&lt;div&gt;&lt;span style=&quot;color: rgb(0 , 0 , 0)&quot;&gt;&amp;nbsp; &amp;nbsp; &amp;nbsp; &amp;nbsp;&amp;nbsp;&lt;/span&gt;&lt;/div&gt;&lt;div&gt;&lt;span style=&quot;color: rgb(0 , 0 , 0)&quot;&gt;&amp;nbsp; &amp;nbsp; &amp;nbsp; &amp;nbsp; &amp;nbsp;建立欄位&lt;/span&gt;&lt;font color=&quot;#3333ff&quot;&gt;&lt;br&gt;&lt;/font&gt;&lt;/div&gt;&lt;ol&gt;&lt;li&gt;&lt;div&gt;&lt;span style=&quot;color: rgb(0 , 0 , 0)&quot;&gt;&amp;nbsp;&lt;/span&gt;&lt;font color=&quot;#3333ff&quot;&gt;缺失主旨&lt;/font&gt;&lt;font color=&quot;#000000&quot;&gt;&amp;nbsp;&lt;/font&gt;&lt;span style=&quot;color: rgb(51 , 51 , 51)&quot;&gt;(多行文字)&lt;/span&gt;&lt;/div&gt;&lt;/li&gt;&lt;li&gt;&lt;div&gt;&lt;font color=&quot;#3333ff&quot;&gt;發現單位&amp;nbsp;&lt;/font&gt;&lt;span&gt;(下拉式選單)&amp;nbsp;&lt;/span&gt;&lt;/div&gt;&lt;/li&gt;&lt;li&gt;&lt;div&gt;&lt;font color=&quot;#3333ff&quot;&gt;發現站別&amp;nbsp;&lt;/font&gt;&lt;span&gt;(單行文字)&amp;nbsp;&lt;/span&gt;&lt;/div&gt;&lt;/li&gt;&lt;li&gt;&lt;div&gt;&lt;font color=&quot;#3333ff&quot;&gt;責任站別&amp;nbsp;&lt;/font&gt;&lt;span&gt;(單行文字)&amp;nbsp;&lt;/span&gt;&lt;br&gt;&lt;/div&gt;&lt;/li&gt;&lt;li&gt;&lt;div&gt;&lt;font color=&quot;#3333ff&quot;&gt;確認人員&amp;nbsp;&lt;/font&gt;&lt;span&gt;(單行文字)&amp;nbsp;&lt;/span&gt;&lt;span&gt;&lt;font color=&quot;#ff3333&quot;&gt;建議以人員選單方式選擇，避免輸入錯誤&lt;/font&gt;&lt;/span&gt;&lt;/div&gt;&lt;/li&gt;&lt;li&gt;&lt;div&gt;&lt;font color=&quot;#3333ff&quot;&gt;缺失類別代碼&amp;nbsp;&lt;/font&gt;&lt;span&gt;(單行文字)&amp;nbsp;&lt;/span&gt;&lt;/div&gt;&lt;/li&gt;&lt;li&gt;&lt;div&gt;&lt;font color=&quot;#3333ff&quot;&gt;缺失現象描述&amp;nbsp;&lt;/font&gt;&lt;span&gt;(多行文字)&lt;/span&gt;&lt;/div&gt;&lt;/li&gt;&lt;li&gt;&lt;div&gt;&lt;font color=&quot;#3333ff&quot;&gt;當下是否正在生產&amp;nbsp;&lt;/font&gt;&lt;span&gt;(下拉式選單)&amp;nbsp;&lt;/span&gt;&lt;/div&gt;&lt;/li&gt;&lt;li&gt;&lt;div&gt;&lt;font color=&quot;#3333ff&quot;&gt;料號&amp;nbsp;&lt;/font&gt;&lt;span&gt;(單行文字)&amp;nbsp;&lt;/span&gt;&lt;br&gt;&lt;/div&gt;&lt;/li&gt;&lt;li&gt;&lt;div&gt;&lt;font color=&quot;#3333ff&quot;&gt;製令&amp;nbsp;&lt;/font&gt;&lt;span&gt;(單行文字)&amp;nbsp;&lt;/span&gt;&lt;br&gt;&lt;/div&gt;&lt;/li&gt;&lt;li&gt;&lt;div&gt;&lt;font color=&quot;#3333ff&quot;&gt;批量&amp;nbsp;&lt;/font&gt;&lt;span&gt;(單行文字)&amp;nbsp;&lt;/span&gt;&lt;br&gt;&lt;/div&gt;&lt;/li&gt;&lt;li&gt;&lt;div&gt;&lt;font color=&quot;#3333ff&quot;&gt;處理方式&amp;nbsp;&lt;/font&gt;&lt;span&gt;(多行文字)&lt;/span&gt;&lt;br&gt;&lt;/div&gt;&lt;/li&gt;&lt;li&gt;&lt;div&gt;&lt;font color=&quot;#3333ff&quot;&gt;缺失照片&amp;nbsp;&lt;/font&gt;&lt;span&gt;(多行文字)&lt;/span&gt;&lt;/div&gt;&lt;/li&gt;&lt;li&gt;&lt;div&gt;&lt;font color=&quot;#3333ff&quot;&gt;缺失是否結案&amp;nbsp;&lt;/font&gt;&lt;span&gt;(下拉式選單)&lt;/span&gt;&lt;br&gt;&lt;/div&gt;&lt;/li&gt;&lt;li&gt;&lt;div&gt;&lt;font color=&quot;#3333ff&quot;&gt;自動分類&amp;nbsp;&lt;/font&gt;&lt;font color=&quot;#3333ff&quot;&gt;&amp;nbsp;&lt;/font&gt;&lt;span&gt;(單行文字)&amp;nbsp;&lt;/span&gt;&lt;br&gt;&lt;/div&gt;&lt;/li&gt;&lt;/ol&gt;" style="rounded=0;whiteSpace=wrap;html=1;strokeColor=#666666;strokeWidth=1;fontSize=12;align=left;fillColor=#f5f5f5;fontColor=#333333;" parent="1" vertex="1">
          <mxGeometry x="530" y="188.66" width="400" height="282.69" as="geometry" />
        </mxCell>
        <mxCell id="q7pfzRahwFJ0-le26uqx-51" style="edgeStyle=orthogonalEdgeStyle;rounded=0;orthogonalLoop=1;jettySize=auto;html=1;exitX=0.5;exitY=1;exitDx=0;exitDy=0;" parent="1" source="q7pfzRahwFJ0-le26uqx-14" target="q7pfzRahwFJ0-le26uqx-50" edge="1">
          <mxGeometry relative="1" as="geometry" />
        </mxCell>
        <mxCell id="kSdmrQnlJpH2w1d-svJI-1" style="edgeStyle=orthogonalEdgeStyle;rounded=0;orthogonalLoop=1;jettySize=auto;html=1;exitX=1;exitY=0.5;exitDx=0;exitDy=0;entryX=0;entryY=0.5;entryDx=0;entryDy=0;dashed=1;startArrow=classic;startFill=1;" edge="1" parent="1" source="q7pfzRahwFJ0-le26uqx-14" target="q7pfzRahwFJ0-le26uqx-10">
          <mxGeometry relative="1" as="geometry" />
        </mxCell>
        <mxCell id="q7pfzRahwFJ0-le26uqx-14" value="&lt;blockquote style=&quot;margin: 0 0 0 40px ; border: none ; padding: 0px&quot;&gt;&lt;div style=&quot;text-align: left&quot;&gt;&lt;span&gt;欄位資料填寫&lt;/span&gt;&lt;/div&gt;&lt;div style=&quot;text-align: left&quot;&gt;&lt;span&gt;&lt;br&gt;&lt;/span&gt;&lt;/div&gt;&lt;div style=&quot;text-align: left&quot;&gt;&lt;span&gt;1. 缺失主旨&lt;/span&gt;&lt;/div&gt;&lt;div style=&quot;text-align: left&quot;&gt;&lt;span&gt;2. 發現單位&lt;/span&gt;&lt;/div&gt;&lt;div style=&quot;text-align: left&quot;&gt;&lt;span&gt;3. 發現站別&lt;/span&gt;&lt;/div&gt;&lt;div style=&quot;text-align: left&quot;&gt;&lt;span&gt;4. 責任站別&lt;/span&gt;&lt;/div&gt;&lt;div style=&quot;text-align: left&quot;&gt;&lt;span&gt;5. 確認人員&lt;/span&gt;&lt;/div&gt;&lt;div style=&quot;text-align: left&quot;&gt;&lt;span&gt;6. 缺失類別代碼&lt;/span&gt;&lt;/div&gt;&lt;div style=&quot;text-align: left&quot;&gt;&lt;span&gt;7.缺失現象描述&lt;/span&gt;&lt;/div&gt;&lt;div style=&quot;text-align: left&quot;&gt;8. 當下是否正在生產&lt;/div&gt;&lt;div style=&quot;text-align: left&quot;&gt;9. 料號&lt;/div&gt;&lt;div style=&quot;text-align: left&quot;&gt;10.製令&lt;/div&gt;&lt;div style=&quot;text-align: left&quot;&gt;11.批量&lt;/div&gt;&lt;div style=&quot;text-align: left&quot;&gt;12. 處理方式&lt;/div&gt;&lt;div style=&quot;text-align: left&quot;&gt;13. 缺失照片&lt;/div&gt;&lt;div style=&quot;text-align: left&quot;&gt;14. 缺失是否結案&lt;/div&gt;&lt;div style=&quot;text-align: left&quot;&gt;15.自動分類&lt;/div&gt;&lt;/blockquote&gt;" style="rounded=0;whiteSpace=wrap;html=1;align=center;labelBorderColor=none;fillColor=#e1d5e7;strokeColor=#9673a6;spacingLeft=-15;" parent="1" vertex="1">
          <mxGeometry x="212.31" y="190" width="165.37" height="280" as="geometry" />
        </mxCell>
        <mxCell id="q7pfzRahwFJ0-le26uqx-16" style="edgeStyle=orthogonalEdgeStyle;rounded=0;orthogonalLoop=1;jettySize=auto;html=1;exitX=0.5;exitY=1;exitDx=0;exitDy=0;entryX=0.5;entryY=0;entryDx=0;entryDy=0;" parent="1" source="q7pfzRahwFJ0-le26uqx-8" target="q7pfzRahwFJ0-le26uqx-14" edge="1">
          <mxGeometry relative="1" as="geometry">
            <mxPoint x="294.26" y="194.26" as="sourcePoint" />
            <mxPoint x="294.25" y="207" as="targetPoint" />
          </mxGeometry>
        </mxCell>
        <mxCell id="q7pfzRahwFJ0-le26uqx-17" value="" style="strokeWidth=2;html=1;shape=mxgraph.flowchart.annotation_2;align=left;labelPosition=right;pointerEvents=1;" parent="1" vertex="1">
          <mxGeometry x="170" y="110" width="20" height="510" as="geometry" />
        </mxCell>
        <mxCell id="q7pfzRahwFJ0-le26uqx-33" style="edgeStyle=orthogonalEdgeStyle;rounded=0;orthogonalLoop=1;jettySize=auto;html=1;exitX=1;exitY=0.5;exitDx=0;exitDy=0;entryX=0;entryY=0.5;entryDx=0;entryDy=0;dashed=1;" parent="1" source="q7pfzRahwFJ0-le26uqx-50" target="q7pfzRahwFJ0-le26uqx-35" edge="1">
          <mxGeometry relative="1" as="geometry">
            <mxPoint x="356.76" y="519.0049999999999" as="sourcePoint" />
            <mxPoint x="383.7900000000002" y="533.4900000000002" as="targetPoint" />
          </mxGeometry>
        </mxCell>
        <mxCell id="q7pfzRahwFJ0-le26uqx-35" value="&lt;blockquote style=&quot;margin: 0 0 0 40px ; border: none ; padding: 0px&quot;&gt;&lt;div&gt;匯出條件：&lt;/div&gt;&lt;div&gt;&lt;span lang=&quot;EN-US&quot; style=&quot;text-indent: 24pt ; font-family: , sans-serif&quot;&gt;1.&amp;nbsp;&lt;/span&gt;&lt;span style=&quot;text-indent: 24pt ; font-family: , sans-serif&quot;&gt;不良品報表：前一日建立的異常單且不良率達&lt;span lang=&quot;EN-US&quot;&gt;50%&lt;/span&gt;&lt;/span&gt;&lt;/div&gt;&lt;div&gt;&lt;span lang=&quot;EN-US&quot; style=&quot;text-indent: 24pt ; font-family: , sans-serif&quot;&gt;2.&amp;nbsp;&lt;/span&gt;&lt;span style=&quot;text-indent: 24pt ; font-family: , sans-serif&quot;&gt;追蹤報表：發現日期開始，超過三天未重工的異常批&lt;/span&gt;&lt;/div&gt;&lt;div&gt;&lt;span lang=&quot;EN-US&quot; style=&quot;text-indent: 24pt ; font-family: , sans-serif&quot;&gt;3.&amp;nbsp;&lt;/span&gt;&lt;span style=&quot;text-indent: 24pt ; font-family: , sans-serif&quot;&gt;稽核缺失報表：前一日建立的稽核缺失&lt;/span&gt;&lt;/div&gt;&lt;/blockquote&gt;" style="rounded=0;whiteSpace=wrap;html=1;align=left;labelBorderColor=none;fillColor=#f8cecc;strokeColor=#b85450;spacingLeft=-15;" parent="1" vertex="1">
          <mxGeometry x="380.9" y="490" width="330" height="70" as="geometry" />
        </mxCell>
        <mxCell id="q7pfzRahwFJ0-le26uqx-36" value="&lt;font color=&quot;#0000ff&quot;&gt;結束&lt;/font&gt;" style="rounded=1;whiteSpace=wrap;html=1;strokeColor=#9673a6;strokeWidth=1;align=center;fillColor=#e1d5e7;" parent="1" vertex="1">
          <mxGeometry x="264.61" y="580.0000000000001" width="60" height="34.26" as="geometry" />
        </mxCell>
        <mxCell id="q7pfzRahwFJ0-le26uqx-37" style="edgeStyle=orthogonalEdgeStyle;rounded=0;orthogonalLoop=1;jettySize=auto;html=1;exitX=0.5;exitY=1;exitDx=0;exitDy=0;entryX=0.5;entryY=0;entryDx=0;entryDy=0;startArrow=none;startFill=0;endArrow=classic;endFill=1;fontSize=21;" parent="1" source="q7pfzRahwFJ0-le26uqx-50" target="q7pfzRahwFJ0-le26uqx-36" edge="1">
          <mxGeometry relative="1" as="geometry">
            <mxPoint x="294.3799999999999" y="931.5399999999998" as="targetPoint" />
            <mxPoint x="294.5999999999999" y="709.9999999999999" as="sourcePoint" />
          </mxGeometry>
        </mxCell>
        <mxCell id="q7pfzRahwFJ0-le26uqx-50" value="可供編輯、&lt;br&gt;匯出檔案" style="rounded=0;whiteSpace=wrap;html=1;align=center;fillColor=#e1d5e7;strokeColor=#9673a6;" parent="1" vertex="1">
          <mxGeometry x="244.25" y="495" width="100.9" height="60" as="geometry" />
        </mxCell>
      </root>
    </mxGraphModel>
  </diagram>
</mxfile>
